<svg height="60" viewBox="0 0 120 60" width="120" xmlns="http://www.w3.org/2000/svg"><g fill="#0073ba" transform="translate(2.165402 2)"><path d="m29.766303 16.023715c-1.94653-1.21322-3.783799-1.690187-5.620227-2.902565-1.139258-.771132-2.718502-2.6084-4.041823-4.188065-.256764 2.534438-1.028316 3.563175-1.909969 4.298166-1.873829 1.469563-3.049648 1.91081-4.665872 2.792884-1.359462.69759-8.7438357 5.105859-8.7438357 14.583845 0 9.479247 7.9722837 16.458935 16.8257997 16.458935 8.854778 0 16.532897-6.42918 16.532897-16.16477 0-9.735591-7.200732-14.143859-8.37697-14.87843zm.213059 27.585924c-.184063.184063-1.874249 1.359041-3.85776 1.543104-1.984351.184063-4.665872.294165-6.282517-1.175398-.256764-.257184-.183223-.624469 0-.771132.184063-.147502.331145-.257604.551348-.257604.220204 0 .184064 0 .294165.07354.734151.587489 1.836428 1.065297 4.187645 1.065297 2.352057 0 4.004842-.66145 4.738993-1.212379.331566-.257184.477808-.03656.514368.110522.03698.146662.110522.366865-.146242.62405zm-6.43002-3.343392c.404687-.367285 1.066137-.954774 1.690186-1.212378.62405-.256764.955615-.220204 1.543104-.220204s1.211959.03614 1.653626.330726c.440827.293324.698011.954774.844673 1.32248.147082.367286 0 .587069-.293324.734151-.257184.147503-.294165.07354-.551349-.403426-.257184-.478228-.478228-.955615-1.763727-.955615-1.28634 0-1.689766.441247-2.314656.955615-.62447.514368-.844673.698011-1.064876.403426-.220624-.293324-.147503-.587489.256343-.954775zm9.736431.294165c-1.32248-.110102-3.968281-4.225045-5.658468-4.298587-2.130172-.07354-6.759904 4.445249-10.396621 4.445249-2.203713 0-2.865584-.330305-3.600155-.808112-1.102277-.771552-1.653206-1.947371-1.616645-3.563595.0374-2.865585 2.718922-5.547526 6.098454-5.584507 4.298587-.03572 7.274273 4.262446 9.442267 4.225466 1.836848-.03656 5.363883-3.636716 7.090209-3.636716 1.836849 0 2.352057 1.910389 2.352057 3.049227 0 1.138837-.368126 3.195889-1.24978 4.481389-.882073 1.28592-1.433002 1.763307-2.461318 1.690186z" stroke-width=".420235"/><path d="m80.342488 26.187048h-3.050985l.0058 5.707881c0 1.668327-.715688 3.018095-2.383412 3.018095-1.668322 0-2.390106-1.349767-2.390106-3.018094v-5.7024h-3.043071l-.000606 5.7024c0 3.296453 2.119062 5.967968 5.41612 5.967968 3.295239 0 5.445359-2.671515 5.445359-5.967968zm27.506372-3.477965h3.03576v14.85901h-3.03576zm-40.84933 3.354317c-2.616697-.604228-4.267359 1.995414-4.335579 2.134898-.03411.06822-.03533.108419-.151666.105374-.09502-.0024-.106592-.105374-.106592-.105374l-.324651-1.989323h-2.718416v11.348763h3.047939v-6.14278c0-.500681 1.351595-2.907846 3.970728-2.288391 1.324794.313078 1.886384.874668 1.886384.874668v-3.457254c-.490326-.255213-.826549-.378861-1.268147-.480581zm17.479355 15.232999v-4.083411l.00083.000609v-1.528842s.0058-.122429.115123-.124257c.09807-.0012.119988.06457.144353.124257.230851.574381 1.501439 2.765926 4.322786 2.078251 2.525333-.711429 4.377611-3.030276 4.377611-5.783411 0-3.317162-2.691011-6.008168-6.00878-6.008168-3.318383 0-6.008779 2.691006-6.008779 6.008168v9.316194zm2.954755-12.356825c1.679898 0 3.041842 1.361339 3.041842 3.040021 0 1.680508-1.361944 3.042458-3.041842 3.042458-1.679906 0-3.040638-1.36134-3.040638-3.042458-.000606-1.678681 1.360732-3.040021 3.040638-3.040021zm16.12715 8.624255h3.05647v-5.584234c0-3.317163-2.68918-6.00756-6.00817-6.00756-3.318382 0-6.008779 2.690398-6.008779 6.00756 0 2.753745 1.852279 5.071981 4.377611 5.78341 2.821358.687676 4.091328-1.50326 4.322788-2.078251.0243-.05969.0457-.124865.14435-.123648.11086.0012.11452.123648.11452.123648m.0877-3.705159c0 1.680508-1.36134 3.042458-3.04063 3.042458-1.679901 0-3.041853-1.36134-3.041853-3.042458 0-1.678681 1.361952-3.040021 3.041853-3.040021 1.67868 0 3.04063 1.36134 3.04063 3.040021zm-53.834133 5.560479h-3.467001v-14.836473h3.720386c4.504908 0 7.921963.826549 7.921963 7.417627 0 6.52895-3.619885 7.418846-8.175348 7.418846zm.828376-12.26485h-1.22551v9.690182l1.258402.03228c2.581369 0 4.243604-.235113 4.243604-4.877069 0-4.450089-1.467324-4.845395-4.276496-4.845395z" stroke-width=".609101"/></g></svg>